<svg width="711" height="193" viewBox="0 0 711 193" fill="none" xmlns="http://www.w3.org/2000/svg">
<path d="M219.699 114.12L262.779 159H246.339L211.299 121.8L176.619 159H160.179L202.899 114.12L162.459 71.4H178.659L211.299 106.44L243.819 71.4H260.019L219.699 114.12ZM322.788 71.4L371.148 159H357.948L345.228 135.36H290.028L277.428 159H264.228L312.228 71.4H322.788ZM339.708 125.04L317.508 83.52L295.428 125.04H339.708ZM444.026 144.12L491.666 71.4H506.066V159H494.186V87.12L447.026 159H440.906L393.746 85.92V159H381.866V71.4H397.106L444.026 144.12ZM541.727 151.92C541.727 156.84 538.367 160.2 532.847 160.2C527.327 160.2 523.967 156.84 523.967 151.92C523.967 147 527.327 143.64 532.847 143.64C538.367 143.64 541.727 147 541.727 151.92ZM608.96 71.4L657.32 159H644.12L631.4 135.36H576.2L563.6 159H550.4L598.4 71.4H608.96ZM625.88 125.04L603.68 83.52L581.6 125.04H625.88ZM680.038 71.4V159H668.158V71.4H680.038Z" fill="white"/>
<rect x="69" y="71" width="82" height="11" fill="white"/>
<rect x="69" y="109" width="82" height="11" fill="white"/>
<rect x="69" y="148" width="82" height="11" fill="white"/>
</svg>
